HIERARCHY
ROOT Hips
{
	OFFSET	0.000000	0.000000	0.000000
	CHANNELS 6 Xposition Yposition Zposition Zrotation Xrotation Yrotation
	JOINT LeftUpLeg
	{
		OFFSET	12.830505	-7.049846	-1.643436
		CHANNELS 3 Zrotation Xrotation Yrotation
		JOINT LeftLeg
		{
			OFFSET	0.620834	-39.957500	-1.919341
			CHANNELS 3 Zrotation Xrotation Yrotation
			JOINT LeftFoot
			{
				OFFSET	-0.413890	-44.704761	-3.870325
				CHANNELS 3 Zrotation Xrotation Yrotation
				JOINT LeftFootHeel
				{
					OFFSET	0.164738	-8.918193	-6.555130
					CHANNELS 3 Zrotation Xrotation Yrotation
					End Site
					{
						OFFSET	-0.604053	0.000000	21.044330
					}
				}
			}
		}
	}
	JOINT RightUpLeg
	{
		OFFSET	-12.830505	-7.049846	-1.643436
		CHANNELS 3 Zrotation Xrotation Yrotation
		JOINT RightLeg
		{
			OFFSET	-0.620834	-39.957500	-1.919341
			CHANNELS 3 Zrotation Xrotation Yrotation
			JOINT RightFoot
			{
				OFFSET	0.413890	-44.704761	-3.870325
				CHANNELS 3 Zrotation Xrotation Yrotation
				JOINT RightFootHeel
				{
					OFFSET	-0.164738	-8.918193	-6.555130
					CHANNELS 3 Zrotation Xrotation Yrotation
					End Site
					{
						OFFSET	0.604053	0.000000	21.044330
					}
				}
			}
		}
	}
	JOINT Spine
	{
		OFFSET	0.000000	12.498170	1.820647
		CHANNELS 3 Zrotation Xrotation Yrotation
		JOINT Spine1
		{
			OFFSET	0.000000	7.620000	0.000000
			CHANNELS 3 Zrotation Xrotation Yrotation
			JOINT LeftShoulder
			{
				OFFSET	9.167800	29.136339	-5.551221
				CHANNELS 3 Zrotation Xrotation Yrotation
				JOINT LeftArm
				{
					OFFSET	12.133453	-3.880866	1.461963
					CHANNELS 3 Zrotation Xrotation Yrotation
					JOINT LeftForeArm
					{
						OFFSET	2.507115	-31.664908	-1.069404
						CHANNELS 3 Zrotation Xrotation Yrotation
						JOINT LeftHand
						{
							OFFSET	4.116172	-24.512624	5.009439
							CHANNELS 3 Zrotation Xrotation Yrotation
							End Site
							{
								OFFSET	-0.213136	-10.931856	2.182134
							}
						}
					}
				}
			}
			JOINT RightShoulder
			{
				OFFSET	-9.167800	29.136339	-5.551221
				CHANNELS 3 Zrotation Xrotation Yrotation
				JOINT RightArm
				{
					OFFSET	-12.133453	-3.880866	1.461963
					CHANNELS 3 Zrotation Xrotation Yrotation
					JOINT RightForeArm
					{
						OFFSET	-2.507115	-31.664908	-1.069404
						CHANNELS 3 Zrotation Xrotation Yrotation
						JOINT RightHand
						{
							OFFSET	-4.116172	-24.512624	5.009439
							CHANNELS 3 Zrotation Xrotation Yrotation
							End Site
							{
								OFFSET	0.213136	-10.931856	2.182134
							}
						}
					}
				}
			}
			JOINT Neck
			{
				OFFSET	0.000000	32.926272	-3.635654
				CHANNELS 3 Zrotation Xrotation Yrotation
				JOINT Head
				{
					OFFSET	0.000000	12.481178	4.646143
					CHANNELS 3 Zrotation Xrotation Yrotation
					End Site
					{
						OFFSET	0.000000	17.715204	-2.222063
					}
				}
			}
		}
	}
}
MOTION
Frames:     11
Frame Time: 0.016667
0.000000	103.125409	0.000000	-0.287932	-0.826497	0.483231	1.608751	4.900534	-2.545210	-1.996558	-6.902310	3.203703	1.010809	2.757775	-1.355932	0.	0.	0.	0.223326	2.315273	0.308150	0.135502	-1.836173	-0.127883	-0.072660	0.344404	-0.662606	0.	0.	0.	-0.000000	-0.000001	-0.000002	0.037259	-0.008919	0.262525	-1.509052	-1.832157	0.283694	-1.023047	1.002010	2.853694	8.191477	18.422789	9.693254	2.950618	-3.344080	6.741699	-0.097354	-1.212034	-0.192769	0.522701	-1.359511	0.929147	-2.277210	8.378590	2.952657	4.325719	1.445201	4.612399	-1.067376	-0.331822	0.371805	0.505379	0.768764	-0.257672	
0.021157	103.132948	-0.013947	-0.299927	-0.876484	0.551621	1.604897	4.918773	-2.523343	-1.981771	-6.872315	3.156640	1.008438	2.761046	-1.398108	0.	0.	0.	0.235203	2.352546	0.336829	0.141112	-1.828213	-0.206406	-0.077844	0.348527	-0.681352	0.	0.	0.	-0.000000	-0.000000	0.000001	0.076257	0.015318	0.342160	-1.540267	-1.801983	0.219344	-0.975056	0.989321	2.770106	8.380324	18.400238	9.479639	2.618371	-3.335652	6.676075	-0.121567	-1.272264	-0.177095	0.514996	-1.322411	0.912104	-2.285140	8.445109	2.940709	4.390211	1.386953	4.547043	-1.043759	-0.346099	0.379232	0.476631	0.818162	-0.311634	
0.031178	103.135399	-0.014452	-0.295992	-0.885676	0.615768	1.586639	4.898759	-2.498159	-1.961070	-6.834675	3.098001	0.997006	2.754927	-1.425539	0.	0.	0.	0.232795	2.356360	0.308128	0.142903	-1.824472	-0.235823	-0.079501	0.349851	-0.687340	0.	0.	0.	-0.000000	-0.000001	-0.000002	0.087356	0.011409	0.361795	-1.584981	-1.830270	0.175642	-0.903094	1.017408	2.750674	8.387060	18.402897	9.461519	2.532363	-3.331549	6.558321	-0.138754	-1.298828	-0.185731	0.515368	-1.328379	0.980720	-2.279243	8.502822	2.866449	4.412249	1.386096	4.482635	-1.030451	-0.354182	0.377542	0.479605	0.836359	-0.359446	
0.035821	103.133267	0.004047	-0.288143	-0.883516	0.674373	1.581315	4.902316	-2.488927	-1.965515	-6.840243	3.036766	0.996465	2.755611	-1.432545	0.	0.	0.	0.226355	2.349285	0.278693	0.151103	-1.826139	-0.235785	-0.087479	0.356214	-0.716184	0.	0.	0.	-0.000000	0.000000	-0.000002	0.090463	-0.000495	0.366328	-1.614217	-1.835646	0.147034	-0.859833	1.005080	2.852920	8.372838	18.404320	9.468895	2.428305	-3.390054	6.479203	-0.147217	-1.308634	-0.210317	0.511420	-1.328936	1.004543	-2.273534	8.526784	2.818709	4.440509	1.427645	4.477776	-1.022349	-0.358149	0.367894	0.449525	0.859155	-0.373583	
0.043464	103.133635	0.010431	-0.282409	-0.890945	0.747471	1.573871	4.897572	-2.521635	-1.959506	-6.830953	3.021283	0.994624	2.758003	-1.456715	0.	0.	0.	0.221367	2.346044	0.275127	0.166320	-1.827649	-0.251473	-0.102224	0.368001	-0.769498	0.	0.	0.	0.000001	-0.000001	0.000000	0.100219	-0.006707	0.381135	-1.618739	-1.862143	0.141863	-0.883682	1.017725	3.004033	8.417359	18.389008	9.420914	2.177734	-3.428065	6.519729	-0.149192	-1.349143	-0.190745	0.500561	-1.343110	0.977151	-2.275735	8.601652	2.778970	4.471479	1.417221	4.454681	-0.991514	-0.350503	0.312548	0.394892	0.878590	-0.331233	
0.046578	103.135825	0.009504	-0.287151	-0.909721	0.770656	1.578304	4.910181	-2.543916	-1.957302	-6.825346	3.020113	0.994624	2.758002	-1.456715	0.	0.	0.	0.226127	2.358658	0.288228	0.172050	-1.826192	-0.267622	-0.107788	0.372447	-0.789603	0.	0.	0.	0.000001	-0.000000	-0.000003	0.116350	0.002093	0.421764	-1.617770	-1.837577	0.185599	-0.905044	0.980304	3.005093	8.430271	18.390238	9.449106	2.054432	-3.443026	6.477966	-0.165961	-1.368161	-0.200243	0.511893	-1.385478	0.968838	-2.277726	8.675252	2.741163	4.518833	1.386687	4.464326	-0.972815	-0.343510	0.267558	0.371670	0.883308	-0.330153	
0.049036	103.139013	0.014605	-0.296074	-0.944751	0.812854	1.591441	4.943901	-2.587364	-1.957302	-6.825346	3.020113	0.994624	2.758002	-1.456715	0.	0.	0.	0.236418	2.388866	0.273144	0.173413	-1.822806	-0.290229	-0.109100	0.373502	-0.794377	0.	0.	0.	0.000000	-0.000000	0.000002	0.136243	0.027593	0.439918	-1.639808	-1.856808	0.146028	-0.907448	0.969874	3.024341	8.445994	18.421143	9.460037	1.972036	-3.458441	6.444868	-0.211419	-1.380954	-0.226610	0.546689	-1.401628	1.034368	-2.263202	8.732604	2.638367	4.584505	1.349241	4.466514	-0.946565	-0.337618	0.228574	0.335003	0.887846	-0.351387	
0.050584	103.141852	0.017411	-0.303680	-0.975259	0.850854	1.602868	4.973220	-2.626472	-1.954739	-6.827502	3.039971	0.993141	2.759951	-1.476323	0.	0.	0.	0.244938	2.432523	0.266834	0.178438	-1.840227	-0.304347	-0.113975	0.377404	-0.811998	0.	0.	0.	0.000000	-0.000001	-0.000001	0.150315	0.052443	0.437385	-1.673874	-1.883922	0.134066	-0.882460	0.995787	3.007202	8.455886	18.425957	9.458415	1.910222	-3.436858	6.414889	-0.253926	-1.399074	-0.226004	0.578067	-1.375405	1.096344	-2.242347	8.776534	2.532355	4.647135	1.335383	4.509931	-0.934751	-0.339515	0.222648	0.317515	0.895726	-0.380984	
0.051769	103.143867	0.020918	-0.308565	-0.998736	0.888150	1.611424	4.995564	-2.664640	-1.952154	-6.829668	3.059978	0.991645	2.761909	-1.496087	0.	0.	0.	0.250563	2.475794	0.262447	0.183280	-1.864122	-0.320231	-0.118662	0.381166	-0.828983	0.	0.	0.	-0.000000	-0.000000	-0.000002	0.158983	0.072606	0.420671	-1.681952	-1.890613	0.114961	-0.882443	0.994410	3.044392	8.482713	18.427740	9.429563	1.792691	-3.438650	6.365697	-0.290596	-1.417656	-0.213044	0.609941	-1.353798	1.061616	-2.246898	8.779162	2.555087	4.695549	1.369466	4.508719	-0.927423	-0.344366	0.231657	0.307199	0.903955	-0.410660	
0.057825	103.145360	0.019569	-0.308235	-1.008638	0.923984	1.607720	4.993061	-2.683273	-1.947541	-6.817803	3.046979	0.991367	2.762276	-1.499764	0.	0.	0.	0.251449	2.507917	0.237245	0.187971	-1.890175	-0.314196	-0.123204	0.384817	-0.845475	0.	0.	0.	0.000000	-0.000001	-0.000001	0.164922	0.076786	0.421999	-1.711521	-1.902009	0.100089	-0.863068	1.004920	3.088495	8.497210	18.380573	9.356231	1.643861	-3.468941	6.333171	-0.305320	-1.416986	-0.241858	0.610735	-1.347452	1.069888	-2.245781	8.782900	2.578947	4.742797	1.348347	4.493519	-0.931190	-0.340012	0.201373	0.305573	0.907829	-0.400059	
0.065084	103.148673	0.013758	-0.312787	-1.030719	0.959166	1.607844	4.998276	-2.710727	-1.941271	-6.801402	3.039619	0.991367	2.762275	-1.499764	0.	0.	0.	0.257850	2.535648	0.202816	0.193356	-1.901987	-0.301756	-0.128514	0.390739	-0.858669	0.	0.	0.	0.000000	-0.000001	-0.000002	0.175154	0.093804	0.419011	-1.740942	-1.907182	0.093503	-0.843243	1.007379	3.136238	8.511842	18.323702	9.275124	1.509981	-3.516496	6.270082	-0.329090	-1.423710	-0.255167	0.610260	-1.338220	1.049331	-2.233091	8.787637	2.604242	4.799662	1.306270	4.504785	-0.936610	-0.334566	0.169108	0.305728	0.908411	-0.395100	
